<?xml version="1.0" encoding="UTF-8"?>
<!DOCTYPE svg PUBLIC "-//W3C//DTD SVG 1.1//EN" "http://www.w3.org/Graphics/SVG/1.1/DTD/svg11.dtd">
<!-- Creator: CorelDRAW 2018 (64-Bit) -->
<svg xmlns="http://www.w3.org/2000/svg" xml:space="preserve" width="2.66667in" height="0.68565in" version="1.1" style="shape-rendering:geometricPrecision; text-rendering:geometricPrecision; image-rendering:optimizeQuality; fill-rule:evenodd; clip-rule:evenodd"
viewBox="0 0 2666.67 685.65"
 xmlns:xlink="http://www.w3.org/1999/xlink">
 <defs>
  <style type="text/css">
   <![CDATA[
    .fil0 {fill:#E42022;fill-rule:nonzero}
   ]]>
  </style>
 </defs>
 <g id="Layer_x0020_1">
  <metadata id="CorelCorpID_0Corel-Layer"/>
  <g id="_2268366221136">
   <g>
    <path class="fil0" d="M92.46 6.76c8.86,-7.17 21.18,-8.01 31.91,-5.41 110.45,25.2 220.91,50.39 331.38,75.57 6.39,1.63 13.2,2.29 19.02,5.63 9.11,5.76 14.46,16.49 14.56,27.15 0.17,16.62 0.37,33.24 0.38,49.86 0.22,9.49 -5.62,20.02 -15.61,21.67 -8.01,0.55 -15.94,-1.56 -23.92,-2.04 -0.1,60.93 0.93,121.87 1.06,182.79 -0.17,9.75 -5.44,19.54 -14.07,24.33 -5.94,3.27 -12.92,2.91 -19.46,3.67 -97.3,8.88 -194.59,17.8 -291.89,26.69 -12.13,1.36 -25.2,-2.15 -33.69,-11.21 -5.7,-5.77 -8.69,-13.88 -8.49,-21.98 -0.3,-118.35 -0.55,-236.7 -0.94,-355.07 -0.22,-8.19 3.13,-16.57 9.74,-21.65zm125.23 145.22l0 0c-4.78,1.15 -7.02,6.25 -6.57,10.81 0.17,34.32 0.26,68.64 0.53,102.94 -0.46,6.52 5.49,12.06 11.91,11.56 38.78,0.88 77.51,2.79 116.28,3.8 3.72,0.02 8.19,0.25 10.7,-3.05 2.69,-2.83 2.24,-7.02 2.36,-10.6 -0.33,-29.86 -0.38,-59.7 -0.65,-89.54 0.19,-4.56 -2.12,-9.45 -6.57,-11.13 -5.16,-1.57 -10.6,-1.72 -15.91,-2.44 -34.9,-4.11 -69.82,-8.15 -104.7,-12.41 -2.45,-0.2 -4.96,-0.53 -7.38,0.05z"/>
   </g>
   <path class="fil0" d="M2193.19 123.65c6.22,-1.96 12.85,-1.08 19.29,-1.26 147.08,0.05 294.17,0 441.27,0.03 4.36,0.08 9.89,0.65 12.16,5.04 1.63,3.96 0.25,8.34 -0.65,12.32 -3.09,11.23 -6.09,22.48 -9.06,33.72 -2.47,9.92 -11.56,19.13 -22.29,18.56 -150.45,-0.07 -300.89,0.02 -451.34,-0.05 -5.61,0.63 -11.94,-3.17 -11.24,-9.42 1.49,-12.63 6.22,-24.63 9.04,-36.99 2.22,-8.09 3.77,-18.71 12.82,-21.96z"/>
   <path class="fil0" d="M1925.95 151.65c4.31,-4.05 10.54,-4.44 16.16,-4.41 12.72,0.05 25.44,0.03 38.19,0 4.96,-0.03 10.88,0.46 14.13,4.78 2.19,4.05 0.68,8.83 -0.23,13.02 -7.38,27.37 -14.68,54.75 -22.06,82.12 8.54,-8.13 17.67,-15.91 28.48,-20.87 18.01,-8.99 39.08,-10.87 58.64,-6.55 15.13,3.37 29.07,12.44 37.7,25.41 15.3,23.06 14.26,52.76 7.85,78.64 -10.88,41 -21.98,81.96 -32.88,122.96 -2.14,7.15 -3.13,15.61 -9.4,20.52 -6.01,4.44 -13.94,2.87 -20.89,3.17 -13.78,-0.43 -27.63,0.8 -41.33,-0.65 -6.67,-0.46 -6.17,-8.33 -4.65,-12.99 11.63,-43.64 23.42,-87.25 35.03,-130.91 2.7,-10.12 0.95,-21.81 -6.39,-29.61 -8.01,-8.64 -20.98,-10.81 -32.09,-8.31 -15.38,3.67 -28.35,14.58 -36.46,27.92 -4.89,7.89 -6.52,17.15 -8.96,25.97 -10.19,37.87 -20.27,75.76 -30.47,113.63 -1.79,8.07 -8.78,14.83 -17.3,14.8 -14.96,0.33 -29.92,0.03 -44.85,0.15 -4.51,-0.1 -10.32,-0.22 -12.69,-4.76 -2.76,-5.95 0.33,-12.39 1.69,-18.3 24.7,-92.07 49.38,-184.15 74.01,-276.24 1.94,-6.81 3.02,-14.65 8.77,-19.49z"/>
   <path class="fil0" d="M1843.28 153.67c5.16,-1.84 11.33,-2.69 16.14,0.56 2.72,5.74 0.38,12.09 -1.04,17.85 -5.22,18.98 -10.4,37.99 -15.46,57.01 11.5,0.33 23.02,-0.28 34.52,0.22 5.11,-0.07 9.89,4.51 9.06,9.79 -1.04,8.46 -4.09,16.52 -6.04,24.8 -2.29,7.68 -3.68,15.64 -6.69,23.07 -2.65,6.4 -9.26,10.81 -16.19,10.76 -10.98,0.26 -21.96,-0.07 -32.93,0.05 -14.52,52.68 -28.15,105.59 -42.45,158.31 -2.02,8.76 -10.58,14.7 -19.39,14.48 -15.39,0.1 -30.8,0.13 -46.18,-0.02 -5.29,0.33 -11.38,-3.17 -10.77,-9.12 0.58,-8.05 3.7,-15.63 5.49,-23.44 10.94,-41.04 21.86,-82.09 32.86,-123.13 1.56,-5.62 3.1,-11.26 4.02,-17.04 -6.98,-0.41 -14.31,1.01 -20.98,-1.37 -5.76,-2.76 -4.99,-10.15 -3.52,-15.26 3.46,-12.59 6.65,-25.25 10.22,-37.8 1.63,-6.26 6.2,-12.11 12.76,-13.52 6.77,-1.28 13.75,-0.43 20.62,-0.98 4.2,-15.76 8.3,-31.55 12.84,-47.2 2.04,-7.6 10.02,-10.62 16.67,-13.09 15.41,-5.14 30.98,-9.85 46.44,-14.93z"/>
   <path class="fil0" d="M2563.27 217.04c16.56,-1.34 33.79,-1.01 49.48,5.03 14.98,5.74 27.22,17.1 36.06,30.29 2.07,3.02 3.19,7.48 0.55,10.53 -3.86,4.63 -9.32,7.43 -14.11,10.92 -8.87,5.94 -17.39,12.37 -25.86,18.84 -3.56,2.74 -8.76,4.96 -12.94,2.29 -4.63,-3.75 -7.17,-9.65 -12.47,-12.61 -7.55,-4.08 -16.42,-5.16 -24.85,-4.54 -6.2,0.58 -12.91,2.39 -17.06,7.33 -3.52,4.28 -4.56,11.91 0.58,15.41 8.28,6.04 19.13,5.81 28.36,9.67 15.89,6.15 32.63,12.44 44.65,25.05 9.8,10.02 14.35,24.43 13.39,38.31 -1.64,23.13 -10.93,45.9 -27.02,62.75 -22.56,24.3 -55.55,36.77 -88.15,39.03 -22.31,1.46 -45.83,-1.09 -65.37,-12.7 -10.83,-6.45 -20.4,-15.66 -25.69,-27.24 -3.33,-6.96 -0.8,-15.79 5.44,-20.22 10.57,-8.22 21.03,-16.59 31.58,-24.86 3.58,-2.79 9.26,-6.27 13.24,-2.13 6.1,6.07 11.21,13.44 19.24,17.25 13.85,8.64 31.67,8.41 46.53,2.62 8.06,-3.05 13.42,-12.11 11.36,-20.6 -1.71,-4.81 -6.75,-7.07 -11.13,-8.79 -14.53,-5.32 -29.86,-8.72 -43.46,-16.29 -11.78,-6.5 -22.61,-15.96 -27.8,-28.63 -6.07,-14.28 -4.01,-30.44 -0.23,-45.04 5.92,-22.82 21.9,-42.26 41.93,-54.32 16.24,-9.85 34.85,-15.57 53.74,-17.35z"/>
   <g>
    <path class="fil0" d="M729.26 245.48c26.66,-18.4 58.97,-29.78 91.61,-28.12 12.46,0.57 24.37,6.34 33.01,15.24 7.37,7.23 11.89,16.64 17.2,25.36 7,-9.85 11.93,-21 18.94,-30.83 2.7,-3.95 7.17,-6.62 12.01,-6.69 9.42,-0.4 18.84,-0.05 28.26,-0.18 4.55,0.11 10.19,-0.13 13.06,4.16 3.13,3.35 2.3,8.18 1.21,12.19 -17.67,65.9 -35.31,131.78 -52.98,197.69 -6.96,26.77 -20.09,51.98 -38.61,72.6 -37.82,43.3 -99.44,65.06 -155.89,52.9 -19.52,-4.43 -39.41,-12.49 -52.72,-28.02 -5.02,-5.24 -3.23,-13.48 0.98,-18.61 5.96,-7.26 13.1,-13.42 19.56,-20.24 5.63,-5.44 10.75,-12.31 18.65,-14.46 4.76,-1.15 8.86,2.24 12.03,5.32 8.72,9.22 21.8,12.29 33.98,13.44 26.18,2.69 53.69,-6.19 72.59,-24.67 11.44,-11.41 14.8,-27.72 18.41,-42.85 -9.19,6.77 -17.13,15.05 -26.47,21.61 -12.49,9.07 -27.17,16.22 -42.9,16.47 -27.25,0.86 -56.2,-7 -75.49,-27.15 -18.31,-18.76 -24.48,-46.5 -21.66,-71.96 5.52,-49.46 34.57,-95.01 75.22,-123.22zm59.02 39.56l0 0c-33.52,8.18 -58.27,40.02 -61.74,73.8 -1.19,12.54 1.16,26.34 10.09,35.8 8.64,9.46 21.94,13.12 34.44,12.59 38,-1.31 72.98,-32.41 78.17,-70.18 2.41,-16.41 -3.65,-34.42 -17.23,-44.39 -12.33,-9.37 -28.98,-10.91 -43.72,-7.61z"/>
   </g>
   <g>
    <path class="fil0" d="M955.19 300.54c26.89,-42.88 71.97,-75.85 122.86,-82.11 29.49,-3.83 61.7,3.85 82.97,25.54 22.31,22.09 30.29,56.2 22.89,86.39 -2.67,9.67 -4.3,19.92 -9.26,28.76 -5.7,9.04 -17.57,9.46 -27.12,9.8 -48.74,0.2 -97.47,0 -146.19,0.08 -2.01,12.07 1.68,25.33 11.21,33.37 11.68,9.79 28.07,11.63 42.7,9.57 15.31,-2.44 30.64,-7.1 43.54,-15.89 4.85,-3.06 10.47,-8.05 16.54,-5.43 6.98,4.96 10.04,13.45 14.81,20.27 3,5.64 8.93,11.3 6.64,18.24 -1.74,6.4 -7.91,9.85 -12.91,13.54 -27.82,19.62 -61.29,33.17 -95.79,31.78 -26.33,-0.59 -53.06,-10.2 -71.56,-29.36 -18.87,-19.13 -27.47,-46.86 -25.63,-73.38 1.78,-25.31 10.88,-49.78 24.28,-71.19zm109.28 -21.53l0 0c-18.68,5.78 -34.13,19.11 -46,34.29 26.99,0.02 53.99,0 81.01,0 6.42,0 12.89,0.33 19.29,-0.5 -3.07,-10.14 -7.18,-20.69 -15.79,-27.42 -10.73,-8.31 -25.66,-9.67 -38.52,-6.37z"/>
   </g>
   <path class="fil0" d="M1310.73 241.39c17.93,-14.65 40.64,-24.42 64.06,-23.82 18.51,-0.13 37.61,5.57 51.26,18.46 14.52,13.4 21.15,33.41 21.8,52.78 0.94,16.65 -2.92,33.04 -7.48,48.93 -10.4,38.81 -20.83,77.63 -31.19,116.44 -1.41,5.07 -3.48,10.46 -8.03,13.55 -4.28,3.02 -9.75,2.64 -14.71,2.72 -13.85,-0.15 -27.69,0.08 -41.52,-0.08 -3.6,-0.28 -8.21,-0.23 -10.38,-3.62 -1.21,-3.35 -0.3,-6.95 0.45,-10.3 10.28,-38.45 20.63,-76.9 30.92,-115.37 2.57,-9.8 6.62,-20.13 3.28,-30.27 -3.8,-13.48 -16.97,-23.19 -30.83,-23.74 -13.32,-0.63 -25.86,5.82 -36.09,13.83 -9.64,7.81 -18.08,17.91 -21.18,30.17 -11.13,41.52 -22.21,83.07 -33.41,124.55 -1.79,7.95 -8.71,14.61 -17.1,14.65 -13.83,0.38 -27.67,-0.04 -41.52,0.17 -4.91,-0.19 -10.52,0.51 -14.66,-2.69 -3.83,-3.8 -2.67,-9.62 -1.46,-14.26 19.47,-72.41 38.8,-144.84 58.26,-217.23 2.19,-8.44 10.38,-15.01 19.19,-14.74 10.48,-0.07 20.98,-0.22 31.47,0.08 4.73,-0.22 8.54,3.68 9.27,8.18 1.76,10.1 -0.3,20.4 0.45,30.59 6.54,-6.19 12.07,-13.4 19.17,-18.99z"/>
   <g>
    <path class="fil0" d="M1542.64 236.06c27.83,-14.91 60.66,-22.64 92.01,-16.26 22.84,4.61 44.04,18.11 56.61,37.93 15.03,22.66 17.88,51.92 10.55,77.8 -2.67,8.59 -3.8,18.13 -9.39,25.48 -6.72,7.8 -17.98,7.52 -27.37,7.94 -48.19,0.12 -96.37,0 -144.56,0.05 -1.63,10.55 0.65,21.96 7.91,30.06 9.92,11.3 26.07,14.43 40.49,13.49 14.55,-1.31 28.93,-5.43 41.93,-12.13 6.22,-3.07 11.31,-8.31 18.06,-10.32 5.47,-1.57 9.45,3.39 12.11,7.42 4.65,7.5 9.39,14.96 13.83,22.57 3.9,6.05 0.22,13.87 -5.13,17.67 -16.95,13 -35.91,23.52 -56.26,30.11 -24.88,8.09 -52.26,9.12 -77.41,1.57 -23.51,-7.19 -44.5,-23.42 -55.6,-45.57 -12.22,-23.67 -13.19,-51.85 -6.2,-77.24 12.49,-46.94 45.95,-87.42 88.41,-110.57zm41 42.94l0 0c-18.69,5.74 -34.13,19.11 -46.01,34.29 33.43,-0.31 66.91,0.68 100.3,-0.5 -2.98,-9.76 -6.83,-19.91 -14.88,-26.66 -10.72,-9.02 -26.22,-10.52 -39.41,-7.13z"/>
   </g>
   <path class="fil0" d="M2372.33 218.11c29.43,-2.82 61.61,3.63 83.17,25.08 4.48,5.31 2.06,13.11 -2.14,17.78 -8.94,10.46 -17.86,20.93 -26.87,31.33 -4.39,4.93 -10.9,10 -17.9,7.85 -5.62,-2.3 -9.92,-6.81 -15.29,-9.56 -16.28,-9.26 -36.96,-8.59 -53.58,-0.55 -20.7,9.97 -36.57,28.9 -44.22,50.41 -5.22,15.08 -6.87,32.63 0.76,47.19 6.37,12.42 20.13,19.8 33.87,20.1 15.51,1.04 30.39,-4.93 43.71,-12.32 4.81,-2.72 10.31,-5.63 16.04,-4.02 4.54,0.86 5.87,5.87 7.53,9.52 4,10.88 8.83,21.48 12.49,32.5 2.17,5.89 -2.54,11.31 -7.22,14.22 -11.13,7.1 -23.11,12.85 -35.41,17.61 -28.66,11.23 -61.56,14.08 -90.81,3.43 -24.76,-8.89 -45.28,-29.26 -53.48,-54.35 -9.42,-28.15 -5.63,-59.24 5.46,-86.3 24.05,-58.37 80.6,-103.44 143.89,-109.93z"/>
   <path class="fil0" d="M2170.06 222c14.1,-1.23 28.33,-0.12 42.5,-0.56 5.27,0.06 11.61,-0.63 15.56,3.73 3.48,3.25 4.36,8.36 2.85,12.79 -19.35,72.35 -38.76,144.71 -58.15,217.04 -1.66,8.16 -8.61,15 -17.1,15.41 -14.83,0.56 -29.67,0.02 -44.5,0.27 -4.63,-0.13 -10.53,0.28 -13.42,-4.11 -2.7,-4.53 -0.61,-9.91 0.46,-14.58 19.29,-71.54 38.35,-143.17 57.61,-214.72 1.81,-6.95 6.78,-13.82 14.2,-15.26z"/>
   <path class="fil0" d="M421.7 470.34c6.07,-0.98 12.65,-2.78 18.53,0.02 7.98,3.52 12.13,12.46 12.07,20.85 0.31,17.18 0.25,34.38 0.37,51.58 0.43,14.85 -9.49,30.19 -24.27,33.84 -127.37,35.58 -254.71,71.31 -382.07,106.94 -11.76,3.25 -25.48,3.27 -35.71,-4.15 -7.1,-4.96 -10.78,-13.67 -10.52,-22.18 0.05,-26.04 -0.28,-52.08 0.03,-78.11 2.24,-23.09 23.87,-40.01 45.6,-43.95 125.3,-21.73 250.67,-43.15 375.97,-64.84z"/>
  </g>
 </g>
</svg>
